<mxfile host="app.diagrams.net" modified="2022-11-30T09:17:28.423Z" agent="5.0 (Windows NT 10.0; Win64; x64) AppleWebKit/537.36 (KHTML, like Gecko) Chrome/107.0.0.0 Safari/537.36" etag="POH8EfmTmArdRj5irvBw" version="20.5.3" type="github">
  <diagram id="DPxvA7bRG5Nwy_jyV1-0" name="StrÃ¡nka-1">
    <mxGraphModel dx="1778" dy="993" grid="1" gridSize="10" guides="1" tooltips="1" connect="1" arrows="1" fold="1" page="1" pageScale="1" pageWidth="827" pageHeight="1169" math="0" shadow="0">
      <root>
        <mxCell id="0" />
        <mxCell id="1" parent="0" />
        <mxCell id="F5k-NMS04Mq166ECuwmu-1" value="" style="shape=image;verticalLabelPosition=bottom;labelBackgroundColor=default;verticalAlign=top;aspect=fixed;imageAspect=0;image=data:image/png,iVBORw0KGgoAAAANSUhEUgAAAawAAADfCAYAAACqCed3AAAAAXNSR0IArs4c6QAAAARnQU1BAACxjwv8YQUAAAAJcEhZcwAADsMAAA7DAcdvqGQAAERZSURBVHhe7b0LfBXF3f//QZEgVwFPEiAK9ZzkqcrlSYwWiDyJWhNiC14gSVEE/yS0FvSpyC0EWyoKCaDSxwu1TUK5qeUApYIVkgpN/kr0kZhUItAmOT5SooSkRcEioOD+ZnZnz5nds+eS5ARywvf9em2yu3OfnTPfme/OzreLwgBBEARBdHAuE/8JgiAIokNDAosgCIIIC0hgEQRBEGEBCSyCIAgiLCCBRRBEyGnY+SSybolFXOxNyFpciobzwoEg2kDnEViNO/CI+gMZh4LKs+Im0R40b53B6pnXdSyra3Gzs/LpZswYGYJ2VVngrrMZW5vFzY5KNQpEXuNyNqPFuT28EQ/ctRnxqypQ+daziFmShjmbGoQjQbSe4ATWyYPYsWIW7hk7TGvEI8cga14x3msU7m2lkXUK+g/EfNwyDvfcNwtLijaj+lPfHUbz3u14ad/X7KQEa/YcFHeJ9qLu06/xVX29uOqknHdhw0OZKNpfj+SCIuQmRgiH1lFXfwrffBo+dVb3Zevy2lxdjqOOKUhLsqHPkBRMWe5AdUNHF9JEOBBQYJ2tWY3v970RE5Y5UfHOAfajq0fd/oNw/iYHowfeiCXloWmIZ+pPoI6fnGDx8zT0Y9/beP3N9Vj9WCYSYroj8aHVeM8iSVtSBvLG9wbiMjD79hvEXSIcOPnxu9j8q8eRNXtHy0fz7cZZVL8wC1PfAsYtr8KLE2PE/Y5FR6w723/E4x/1G1CytxknD5filQX1iI+xCVeCaD3+BdbnpfjZiFnYHQVcfuJGLNxdj6bjTah/50U8HsvcBx3E4pRHsCNEM61BXFhlrsG771R4jh2/Qf6j6eh1OfMwYCi+2DkLoyMzsPlTLYyb6FQs3f4Rat934qdtHAkTF5JqrE6biszZq1D95Rlx7+JztnIV8l5yMWFVgU1z4tExW1THrDtcn40DWzJRPXsMEif8EiderMCLWR1T4BPhhV+BdXBTPn7TawgGH/tPPL2vhM1c7LD1s8GeNAXPbndi8mdXI6a3E6u2hkYF1/U8EHvtf2JU0mjP8cMpyF3pRP2RA9g0JRKupqGIHbQFmT98HgfpRW7ngQ2KOhIRibnYWVeHnfNHow8fLHVkOljdsdqDfeJibHq/DrUfVqBw1mjYOnodEmGBH4HlQnVpA3DuMHrcOwcZ5lnL4An4yS+uQkO33mj4bQkb67UzfW5A5rNbsWnyJ6g778CQv/4Mq3eeFI4EQRBEZ8ePwDqJIzXsX1929I9AH/WeTARuGJECfNUDJ/ZXoT5UCzD8cXkMMh/PB46dwhU2oHT3eyyXAn+rsM6fhGvPRiyZdTfS1ZWE/BiGpAmzUPCGC76Wcpw8tAMFLEySukosFolps/DrvSxueZHICllUm1ZXnW/Gey/N0MKPnIUderZamB+vVXnN72LNvEyRr5uQPmu1ZwEMi/vgGwV4JO0mLcwt4/DIirKWLyvW45kwBsPVtD3pRHTxs1rupAvlrz6JR+4bh0SRZ75I555ZBdhRK4fT6yoTC9lVbG8H8AYrkx7GUK8MVpfVW1dhzkNSvKxs0+atwo5DxoHL2b1PijzH4p71LnHXiGv93Vocsbfh16UbkaXHubjMuj18vBH3CD+PvGEaKKl5Y3Ull1nN20YctIjsa3RVw7xX9DiyxEKm4WMzMafoXdZmhCe/tF/dBeTzUswRv4e4kTPcqvlAK0cvqZWlRPvBN7+1pkp5boRDQRSU2ClO5Yi4K1O/boKCnkOVQSya56rFzdZw1KlMgU25tj9La3mVuOmDcxXKUvRTMJT5HfEcy6VgX74CDFSGXgklZ0uTuKlRtepGvsGv+4h1sHIhQkGfq5Qodj2OpXlG+NU5siVH8z/gatWPHH7qymeU6f0HKEO88lul5PO4WZ3hx79Xfv9zzT9PL9aRoziPCl8tzE8Tz8uV1yoDe3RXnt22jdWVJywir1OGDuDnGcr2o2eU/UtHetwQqWBQfyWGnQ/78XbFWCt+OHdEeX06Dx+l9OsDpZc7Pn5MVZavfEi5esC1ymB2nb9PhFERbUb41crFzyMVm5pHB/Ovl0zUFa5SoNYPOwZCYfN4Laxcrw0lyuP/ye/blAHCXTv6sHqB0oOd371KqrNzB5QXR3Zjz47Fc+8GpV7c9lCvbLyXpd2DuU/awNr2EWXjJHY9CMrVeEIpMzcGhtbWoxUb/j9l+3Fxk9OwXZnG83J5lGLrLueNHz9yP3O9fQ5haea8/ldl61TJX7dBSvS1fZVodm7VFr1px7pT8bTj2Gynp92wdrHpARb26hilP2KlZ+lpo95tQiOQO0EEgx+BdUIpeYw1WttQZSD+U1l9UNzW4Z3CLazxxjja3ghbIrBY5+KcwvLFfqCxjnz20xL4E1jLb1TufqxIKXM1KWfOaffONFQoBT/oxeIZwH7IUsfCOfiS8l30VYUikKw8t7teaTp+QjlxtF4pW5Wh/eB5J+FLYA29TnH8Bw87Qdm4/4Rw89DS/Og/dvvQa5Xv8A5m6Xal/ijLzydVyvNTWDqRdmUI62xvHZvE0oxVntyh5ffIvpeUDPRk+bmadYbf8X6GPjjw6zQWz1DF0Y/FfdcKNZ8nWHxNrr8oK+7i5bpG7SStBFb+iAnK44V/YfkTndm5M8qRd55TUntFK9fYjB3gGV6nx/+i/JJ3vLzDzXxFOaDeY8cp4elUlfLkSJZmP21gNPVFHrfm58i+Dcqcsew5DfyO6vb4m566PvBiioK+17ABQJqy8RNxU8e1Qfkv1t4Gd4Mya4cW5sSOmQq6XKsK9ye9JNYBZXWKQ+nRlwn+JRWezv3UX5Q85h+Dhqp1kbnUqVR9IvL/yQFl+4v5bBAh/Ir2aWdt47vXsDAjfqlsV+u1Sanf8UtlBKJZm+IC8w7v/FrQnnVnLbDOsHbL28UQVbDO2mYcwpLAIi4EfgQWa6LsRxbDRsf91I77NuW5HQeUI7yx79+urPgBvzfIR8fVQloksJoUZ7b4MQUpsE40Ga/dvKuFMXZSZ5R3l7AZ0NVD2Q9zpLJ6v7gtUb+OCS02s/QpsBxDfHR8Gi3Lj+fHHmse8XKOb1dycLUqQK9h4XJ+b+xI1I6427WW9WLJmQrlCfRWZxu4+XnlgBCobs7VKxvSmdsgq+fOhJqvoi1l9TLAZjGD8TGaFxx5hQ8QhipDedm2WMzzmdB4gg8uBrPwKS8x0SI4+JISx2aI11qU23K2pJa7j2Jjz9QglDgsru+y9hnJBgNye1CFYu/v+M6bjGifsey31D9ikVKmCxWBJmCv89tuvGmnurOIV9M4DFbzZxUXCSziQuB3lWBE4mxsXzUKn3/SB30ja7B84o24pn9fXDNiAubvuh2L5qThXyeO4RtkwD5QBGp3mvFP/lqim3YVDH1sNuBsM1yVZdhctAoF86binvvGocvo5zDQ0RNdrwSO/FPX5R/Eu1vOAl0+Qe/sRZg0XNyWsN+RgcxT/8bX4tqbwziNpUi91XoxdMvy44EFwfiJaTB80dIvHqlTrgJONbE0H0FGOutSJPrcMBp3fH0a57sAX5/z8+5J59B7eBo9MeSfwKxfTMMN5tVdl9uRMu1B4ItvxA2ZPtCK5kL1ns1Y86sCzHnobtyTdhNGP6Ugtl8zLsP/oelz4T0gzagurwb6foLjCS9i9j3Gsqn0SMHkF+OBf8fgRNkeHNA/d7h+An4xqTf+cRoo31kmfaPkwnt/PAh824ioJTOQ2k/cjhjN4klA8zcD8NnyP6FaqqqD5Zvxt4h/4/PhjyLZ/YlfNUp+2wD0/D9cMWkDFgf7nRZ7rIOWTERyD3EtuOF7acCJ0z6ffctpQ91J1J2PwMnKAtw16Q+4Fp9iWAf+Jo3o/Pj/DgsRiH/sdTS98xyy029CzLUOxDoSMG7mS3i3YTceG3UKx091x7esC+3bWwRpb0424FDZcVx1jp2Pshs7bx807MzD2O6RcNx8GzJnPI6Fz2zAwZpmjE6ORtcz3wpfgsZ6fLD/BK7lL7/jHNbxs048Al34FNOaL4H+2bGw+1jK26L8SJxnTjabefkLE4pcLn57Ev0cg+Hl3COCTZaY/O0OvHvYtBjFgmYX68yv7IZzTBrHRHsvteFEdOVvSyxKf74BpU/cje6RDiTckYns2Qvx3LrtOPi5DWPjvsVxVcIzyRk0DTiwh/1jeY+Kj/S5NNoW7WDS+DJcga1wHRU3EYPke1ln3GMgThS/jjJ9Ucrhd7Fx2wlEMkH2QPpotep0bkjPxn992QXdTi1Fqb4N0/mD+MuvK9Dz7Gncm3uvR4Dr7YSX6eYbWWrB8Q1Ld5T9QnT4bak7QbfBGFq/GFPvXIV/2Y7j6LStKOyw36QRlwIBBJaGLSkbz67dhcq6OtTWfYCdL83EqOizOFBTBXzVjH7ZKYi37ttCzsn//3W80K0X+rFRejzrcAL99M/+dRXuvOtXqBsA3PrYerzrasKJU4pajopn7seRBtaDmGhJl9pSWpOftuJTsIYUvjNEDtKW7sNgxCPvlQrUHz2BM+dY2d7fhf954HL8i43kLyQx6Q8i+6tv0KXbKyiv1GYtDXu3YxcbUXw+/HlMYPLMwHUp+PGkq9DIeuTNe6q01YIHy/DC/u64Evdj0u2X2Mzi3Kf4xDEdE+77Fp+dj0S/7Vvx7oVYDUwQPghKYFnyeSnWL/kCA9kILv720UHNdNrMV2VYPr4IiPwHms48zGZ9gTuQ6jdX428DeuH8v36BpwsexKjrbOijq2P4LM1Mj77oi/M4x2vm1AnrJc6fN+OvrOquEJctocX5ucBE9GBT5bOKKrS/PmWtQmxurgeu6CquBOer8MbsCgy4+ih6/OI5/OL+0bCzGVqEGNmf5WVr8UjABvso9u8b4Fh1k88l31p+zuNrPIAbh4ibnH7JuPvRq3CMzYK0TyAaUL6NL/k+Y5wtuYnB+GmpLLNXudWCtWW/wd9ZyH6P/ghp0cIbp58N32Ht5F88joYGz+cVHYY21h2HT/bPD8b0pWuQdbwJTVe8isyYB7HDQnWotxsVi3Z88lQT6218TPMIIkhaJ7DON8D56ASsufosTp75SVCCo80c3oHHk27DskExGNwATN6yyPP+wSfNOPIx+9e1mc0yuiPC0MeexXt7SoABV4prQR87Rt/bH59164cTS36L7V4/zrMo//1q1FzduxWV14r8XGD63JCAtG/PoEsUsPi3r3t/v/XVu/jDryuBvqbSNzfgECtTT95nRUQY1UYszFubm9lggD24FhGDG5NY2/r6OlxV9QiKd1qoNNkg5rWfMiHU41NcNWkc4g0jpz5InTiF/WcC6Fdv4r2/lsG55RP08zNb6nPnFDzBBNE3XC34wV5sm7MfPdn9KVmpxm8RIxJwy6P9cQpD8NULT2B1h7MQ0Na604jtxhpA9His25eP/2jqj8HRGzHhB0tQ/ZXwIOgz8Bom4L5BRF82OPjAtPPN+YPY9dJ2JuRJYBFtI0CfW43Nizdix95quBpP4uTnDTi4ZyPm3X4NsrYORfQ/v8TkbU8ZBQcTZjtm849Nb0LWS9XWMxQfnGPtue4ff8V7e991H+Vbi7HkJ2PQZeiDWNXYB/0/+xhJvz4Q5ItfGxxxrOv8xo5ePfPw0oa/o5ln6KsGVL/8CEYv2ouh/cxVYEfqAynAZ73Q99rXkOmYhjWVbAT9OSv/4Wq8kns3UpZ8DvTy/a7JN63JzwVmyAQ8/lgkjrA8fufVLGTMXY/qw/zZs/lJ5UbMvnUMfv6vwbBfbiq/zYHrcQL/YPL2iyUv4JWaZpxlfd1ZVmcvzGBh/mpDrOXLjwj05Y+yGxuFF7+OHSzcyc9d2LFT6/RuyFqIn/z7Y/xjUG9sHH8HHikqE21Ry8/ccffg6YGXoVdjHH66KMNLRRwxKhVPsDydGvA/2LHmfZSy4f/V5tmSjLr44iZ8yWLa88xz2K627acwfpQ5830w/qez8d3mY/jUsR8rb0405I23lc0rCkK2z6Y17Vt3Mnyrqre23IdPG2PgcC1GwgyncTBz/Sgm6L/Ax/164m+PZGHJGy40i3oo/PGNeOT/4mDv2prfDEFIiNWCPhDLW7XXIOLooUSIDyRnvVJv+uCQoS7fjVQGOaB0x2Rlu49lzgbEsnb12yabnJaWHv/P+g0F/e9WVr/jI0Jfy9pdG5RkHtZ2rXJtTzneB5Rt255VevWI8g4jfTiLaCiR7jD8uF/ZWv26koO+Fsvw/S8zVmlFfvwvCfaxzF+nRZ8MCBq2K1N5nvoOVq5h4Tx5ZMfUrcqHr7P89PDOj7rcHwPUJfFssO4JM+0Pyp+eZf8HxLC6nGL85o2hffcVrQy4Fu6PtOW8nvn7BmUaX+NyZZTpWfQSbXGYkvem72Xl/Ls39HcoUTabtmz8nQDLxg9qS+IHDxqofKcvlNte9Cz4NnPkzYXKcJ6X/lHKwAg5b/zI9Ppw2OfnBYHcfdA+deerHevfYg1VrmNxmD9yrn/lQebWT0HMQPUbN3daicuU11/9sXJFL1rWTrSNAMP5GIyeNR5Tx4/GMAdfIejAsFu/j5wnnag6quDF++3eK4bip2D7Y3b0RwImvDgPqUG+3Oru6Au+ATz6aunox02p38fUuc/hN+/U40TTH/HTJN8Rxjp64orBDnEluG4KSv6+HfkZ18M2UFrleHQj7on5GgPZ6NMrzOUxmPDbEziw4zHMGpHAssTCjRiNzLlFLNwruO+as2zm2A3fnAFGD/HOj7pVji9akx9GLOsBerB8+MJfmrxuI/r7yZOZweOx7sQBbM+7Gzfatecw7NYMPF5YgaY192HgNyy9Qd75sU/dgPodczFrWAKu4nV2cxpmvcjCFN+LgefYdb/urC67C98ebpixAe++eB9ujnKgjwiXavfUa0TcFKz9oh5lz9+PcVJbvCn1dtEWa7DUj1o6Pn0mbuvP5kR9++LKEb9EaqDd/MWSeK4N/upEKrJ/6NtcTUz6Muw/WgXngom45eYb1XzFOm7EmPEz8eQrjyFFah6W7VMikLsV7Vl33m0qAvFziuD8cU9czuJwFT6IqS8fdGtR7PcXsuc/H7NuGMjGMywd/pv5hRMHdi/E6G7fYmi0/zZMEIHowqWWOCeC5dBqjLhhCU5ceQypG5pQONG3ECXCkQa8knEbpmypB5thYG9RxoVZVEQQhF8u8guT8KShugw1Pa7E+dNsVDmYurJOx+EybNxyAoO7AKn3mD7UJgjiokECq6U078DSB3YB/T/BSeQhxfwtDxHmnEX1pmLs6vcNjit5mHLnBfrAkCCIgJDAsqJxB5bMW4XNew6iga90Uo8GHHxjNe69YQJeHmTDNQ1A+rrp8Fo8RoQnZ7Vn/N6vHkTCgnpc8/kXeGDbY/R8CaIDQe+wrGjcjKyBmXCKSw9XoV//L/D5ceDupX9B4YIUsqTaKeD2pTKxsL4e6BWFyH8fQ8LyKvxxPm1DRBAdCRJYVpxtQPnWjdhe+i7eqz6IZvGRZET0DUgYNQHTf5qB5OtIVdR5qMaqkZn4NXvOEdEpeGDBbMxMv6Hjm8YniEsMElgEQRBEWEDvsAiCIIiwgAQWQRAEERb4VAnWbJiLdR+KCwPDMe2ZaexvO/PROsxdizakVYN1c9exv94Mf+gZTBsmLi42TbuxckUVEubPwx2R4t4F4NifV2JlyTFxFYV0U/oG98h0zJt/B/Ol4T+sqd5HTsMzD/p+gn7jUutmJ3RXf3EZ4+EY26m/8hAEESZwgeWfRuWt5XOUtTXi8kJw7C1lxfK3WMohpmatMqc94g079itr10u23nm9zFnL7gpM1/vXz1HmuP37D9tYulZ565i4EG1nRamvGm9JXMzvHN/tkOfRVzqNpSsMz129ltMlCCIs6KAqwWGYGvIR8DHsfrMGw++ikbU6+5BnKsPGIT2yBlUfaZc11TWIShvnnp0MT0tH1IdVYtbkP2zUndOk2VYU7rhrOI5Vf+SZJRloSVzDkTCSTbqOWsfEiRxo9WSP4aPqY4bnHnUnK9uHu7C7SdwgCCIsaKXAYp3/irmYO1ccGzyKN656mbtht3BfyToFze+6j7iqSPYvx8H9aeHV+2tXYpfotFTV4IrdqOHxWqTHVZfytU8+2oWdSMe4oFSBPK88T1KezXnkZfrzbqzkbix/Wjcq++eHUSWp5lV3M4TxxK3VX43B78o/y52077pX4Wo03c0rrC+a0NAUhRhVODCB8WEUEw5S5x85DAmSIDEih/Xm2FFWsIGRQQ4S/MTFyrXrw+EYd6eIibcLd/0eY4JMPQmSSJbGMZaWuCQIIixohcDiHeZKVMXPwzPPPMOOeUg/uo4JJOHMqH1pA/CQ5qaPkGvWViFB9T+NjW55Z7Ne+HkG00Yew84S30Lng23fxy5M1dKbn45Ty+82pBcYlucWz65Ynvi7JTXP7Hgokl2bBFA1MFXNE4+XC551aErT6+UZzEtrwjpdMLEOdt3RdMzT3e7y0cMzavJGsPrV0x2OosfyhEALUPesU78v6n+QMF+EZXWdIJz8cezPu1ATmYBhvrPkE/9ha7CrhM1u4qVZlB+845KE81pe1/7fZ9as1QW1PLiIwrB49nTe1AcIDDZ4+f7v3hEXBEGECy0XWE0foapJGumyDoGrfbgaSSdu1hxJlaMx/CG9s9FUOxg5zu1H7dDYSNzXXOCme9/CVD29yDswc8F9btXQ8AdZx+znpb4Kz3PQsysdvgBA6iBN6iqOQQB+VMU623RPPhmq6qmpCh/pnWdTA5tDaEQNG+4Ja2L4sv2eRSEs3dXT+uGDf7LzAHVfU7ITo0sLDWq0O6T8WKEtRojEtFaoYP2H9QjwYBa4WMfFyqcL34eA9UwYuYXzsGmqQNaej+RP9RuJ70dNcQutqDtZHgbu9Mw8q2NwYNI/NEeCIMKGVgisBvzhyBaj6mst6zD9CBwzkdFRiIq2HJK3C8c+rALih7W4QzYShciB4tQCa9WXpHriHSzrdLV6k2cAwXGc22n/134/da+pxazf41ihzV5WNo6TOn5/yKq6AGFVdd0uxDAhMi+AwAw6H2ygMo/NNg0zJV+wut6/PhpVH3p8qgMbXaA9GIl9p2f7VGMSBNExabnAiozBfTc95lZtuY+QL5IIFfylO4zvZFqF//ckUUxYWQttqaNXZwW8rhKwMeq+FgmtyNPsz4ARfupeE6j+FiV40FSLDXexsF6zU4v3O+rMLhKRajn8hWVwYfVmDMtjMMv0A8TVRnwKb3U23DoVKEEQF49WCKxhSMBOrA/qZX77E3DRhaGzlTC8tLfC+F7t2J/X+1+0MSwBw5uM9aKF0TrGY39e5xFQLDMpc0aLi+AYcI79CVD3XLU6P3WOJAhrsNvKr98FKELNuNZTN1zVeGwkKx+/8BuWCaCWvCsMFNcGeTZVg3VsNhmlz5QNz89UTv6+8MPhSLCMV4uHVosSRPgRxF6CnlGw512E9n5C7uz1j3HVdxFcveMeMXuH537WY6pHXaSPytWZgsm/wU2DC6ld0fPU8Px8Hfx8nMrDVyd4u/P7Pj9M5uXbhWH3ROC1P+rvOuQPUa3qhGOqF/kDVTU9T415Pl7W0ooRH8wGrj/fda/iMx0Jkx830oe52jslIQTkD3b9ho1U87rTa+bo/WGySoB8qM9W+ng9Kk175ipqWP35mevE+NFwUHVCEESHhza/tcQoRAiCIIiLTyuWtRMEQRDEhYcEFkEQBBEWkEqQIAiCCAtohkUQBEGEBSSwCIIgiLCABBZBEAQRFpDAIgiCIMICElgEQRBEWEACiyAIgggLSGARBEEQYQEJLIIgCCIsIIFFEARBhAUksAiCIIiwgAQWQRAEERaQwCIIgiDCAhJYBEEQRFhAAosgCIIIC0hgEQRBEGEBCSyCIAgiLCCBRRAEQYQFJLAIgiCIsIAEFkEQBBEWdFEY4txEDdbNXcf+CiL64/r0bGTfGiVu+OCjdZi7tgnp8+fhjkhxjyAIgiDaSMAZVtfk2Vi8eDFmT4jC+rGj4awVDn74sKZRnBEEQRBEaAgosAZ074revXtj8Pd+iIX59+Hw4WPChSAIgiAuHC1+h/X1t12Ab4+jetNK5M6fi7lz5yL3GSeqjwsPAqUr+3O6BusWz8WqP3+K6jXMb9H7OKc549y+Ysz9uROHvj2G3SuY29pd2P1Crhbfim04dJr5+YD5mVuM98+KQGffR/Hcn8P5N3FNEARBXDIEKbDO4csPdqEg34URw/vj768uxSNbuyIrtwAFS+dhYo9yvPLyDnyq+z53BXr1B/6y7Oeod0zDw3cOxvCR16Pp7UpUqcLnS/zv+4fQ/3tJuF7k4PDuD9A742kU5I5H97dfwJZ3/o2uwxLwnePlqNmvibkv9/0vDvW/BUnfVS8JgiCIS4iAAuuj56PZLCcX89ccwo/+9DLGD6pD5f4u+NF/5yC+f1d0jYjCzT8Yh+Zdf8LfmliAbqegDOiCiifvxx/6/DceeWA4rmS3u8aPQbqtBvv2s4sv96N0+xVIGjuYJ6EyJHUCbolm8V39XYwdm4CvTzQCEfG4PW0IDn1YxUUm9n94GINvTYEnFEEQBHGpEFBgDfxxAxYvfgovvFCAh6UVgj0iuBjycPll7JrHpgDfftsD3fp0w+nPPkaTrs677Hr8V8o1eKS8Fl8fKsepCT9EQl/hZsHp06fV/9ePvQWf/ep/UdW0H+Xbe+CW+N7qfYIgCOLSIqDA0hZdXImubp+xGDH8Sqx79nlUHz+Hc2eP4f03dqI/E0DDrmbO3/TE5Z+fQuLstXigTylW/+otHPtWCzl4bBIWvfd75Dl/ietHfQ9BiZ5BKfjJjMP406qdOJ51L75H8oogCOKSJKDA8qYrhk9+GE99/ww2FeQid9Eq7EQ6sn96B/T5103xA3CqCbgt9+cYdWYXXnylBup8qW8SJow7ibOXrceYeL4qIxh6I2nM9dix+23cMiaepU4QBEFcivj5cLg9OIf3i3Kx4yom8CY5xL3A8BWFudt74+GnMhF8KIIgCKIz0YoZVis5dxrHa3fgN0u+RMp/BSt2zuH0P+vx6m+exuDbkklYEQRBXMJcsBlWzYa5WHegN4ZPfBTTbu4v7gZA3ebpEHqPvA+PPnAL+l848UoQBEF0MC6wSpAgCIIgWgfNWQiCIIiwgAQWQRAEERaQwCIIgiDCAhJYBEEQRFhAAosgCIIIC0hgEQRBEGEBCSyCIAgiLCCBRRAEQYQFJLAIgiCIsIAEFkEQBBEWkMAiCIIgwgISWARBEERYQAKLIAiCCAtIYBFEB6R56wzExcYiLmczmsU9grjU6eACqxmbc9iPlv9w1WMGNjcKp05HNQqk8lWvYOVdUa1dhD3Gsl0UGjdjRlB50NpcQaW4bBcC10cDUrG3rg570/l5J8XwTC5EvRPhTgcWWPxHPQauh+tQy3646vF2apt/vVwQzNgagjGr+mMrYLlsH+Lns/LOjxdXlxDtUq+sLY11YWZdITKixa0QErI2JRGDUiSxQVqSy4FO2wqiM1DYTs+E6Jy0i8Cqq63F/ZMnq7Mi/p9ft5jGeriQjbREcc1hDTxDviaIYGiMQXZdblh1/LaJhdog7VIctBCED9pFYC1evBjbnE71nP/n1y0m2gE7ilHiT0VQWeBTXaiq1HQ39T2ApnJIWAD8aVKk5N+sdhSje6uRvn6PpdtlYCaKsBBZPIxbdWeKy69Kz+h3xtZ6XFb/pXBjrvwdhhTe/U5DHEbVCZ+N6m6sXJVy3oWqZSu/x9z1dyKGupNnCMJ/pRSnmg85v/7VWUa/3mUz5pcdUp6Cqlc5fV4O83se9d4a/E4tB7uOtsGmOmjxuMuqPk9PvPIsqUuPQ8Y6tSyvFp93m2KY6tdvWxB+eV7Nz11Pw5eqTPdvaB9yeFE/m8XvQY/H3J78zRADpsEJUF7v36N6l9Wxn7bkM06rOvHc0/MrpymXz3tGHCAfRMeBm8gPNbEOh9fRKo46lRw1fL5SJW652ZdvvM+vs51Kk/mc0bSvyn1etdyh5GzRrxgsjXz3dZPizNbdtfP8fZoLxxBWzZucLzms51oO78HsV4sbmKI4j2rXTVtylNjleuzM/3KpPNzNXb4qJZ/VkScdLW5P3YhrqT44VctNdWf2777W4o915LjzxvPqyZuZwGXj6Xnya8q/j3o1pGfILw/vyZvun8dnrEOGHDc7H48fSOGqFKf03OW2pZbXVH8yhnbBYfkD7vbKk8ePluff/5Odqn7Hu/165VkqjxXcP/8Zm9ud+1qNH4bwahqGOja3ISPBpeGnvPx5Wf4e5WdnKmeAOL3qSUpDz68xronuuLyelyEfREemXWZYiYmJOPLxx+o5/8+vW4Wq465D7WswjbjZmGhPMZILsj1qnsRsLEUpyvRRUrnL/brLlhgvRtgWsDRyJ+quNqSkp7CgPKR2vmaPnmY1SgpTkJrkI6bGMpSWZ2OmFFfGw9lSeAkvv/ydlRP5ju7iygyLa36Guwy2pFQk6+WrLMGa5GXIdlcx8/v0MiSLK53pD3vCc+LnSyqyxDRMhwv10ghz+mu6ezzSZrB/M2a63zXE354N1NaLUbKJYMqWmItcd361+F2HfYzwRXybZNUYf9bJ+uybh2d+9orwwj9XJdsmzsT0wtXukXPz3lKUz0hTy1W9Pg9RW34nvT+JR4aUZ0/5mctUVp9SewoEb5s5W+R3M1pbKN9ZZqiziKN/wMSb34Hz6PY2vcdhHTcKTe1OTot15FL7aEYZc5PLx8ueXSC3dW/8pRFUeYP9PQoCxan+BgpLhBZB85/Mfq96vDy/7jbG2osz+0OoP2sirGkXgfXkk0/i3sxM9Zz/59dtgnVwtXUVWFqbKabyzaivBYpUNYw+7R+DReVlWqPk/nUhF8RUX1YdRE4qEnfZj0Lt8MSPggsGqdP2osGFonqhytKPycXWHTvzW55sR4y4DApJPcLVZuXidvNhFxDnCNgBeGFQh2ViYf0Z4eBNjD0FyfYgcxtU2TT1jV6ehAX14r4FlvHZ4IjzCDkuUCA6Mi6U4B7IyMKMd9TA0qncRWs/9iEtrrUg8BF3jN0k9Mpw7/CJuHnfG20SVpbwtMSpNw1wlafA/DhtQ+y+ByFWuNMIorwt/D0GFScbaM6coQ9a+GDSOEgiOiftIrBi4+Lw6muvqS+N+X9+3XaMsx/eYbEpv2cFoTg8oyou5Ni9t1Px+4ETfP5IuLBaba9wh2/akiNcOLzD034UH+1ciOm3e8akXrAfUw4byfKlyHpc6lFknNmoyD88ncZ6fGh4zyPBhdXLdnfcylGnsUMydzS8kxenlnBhpa6a0/Ppb3bXQgKWjQsr4+rPquUO4WaBVXwCd4cWzWa+6uy6GXvYgEOeBfPZYNGkcjTzmRfzlaIKB6PACy1+4jYI3hRsq9mKD27u4vP9VKvx+/xjYE8WAzszLRn4uNMIsrxB/h41gouTP9uFOz8Sg0lt5kx0btpFYIUE1qkWGF6MaqoMfaTPG+uaydbLn5u3Fnh+ENEO3OyIEhdmzCM5LQ0Z9Uex+2m8sT7fuGLRjNpp5iHPz8trN2JByWr5RfD6PPweV4grI+ZZlKraEudcNTKsOBPF7k6PCYSX2czOH+ZZC/vBL6w/JS7aSMCymUf4fHQsTq3g9ZpcjCz5JT4T4FlsRO15HnwwA2xb+1u8xQYNmlASqOqgEvxsdibsklpUE2TyaL8am4N5dkHgHTd7Jk/kAZLKinM2+j5sZoOPCkloqTMdSdXVvDUPmcV+ZqCMugVPGcpRwGb2ZhWwB6HqNvx2RBg/AzJ/aQQqb/C/Rw9B1WFiGvLXv4Gn/xxgMGmCawxkdWX1ClnDwAdU/hehEBePjiuwWMNG7hi32oir/ErTKzx6dDZi21vgMqrgxOoj2xBg0Vj9fibwmkcXrqqP1Hj5j0HTi6+ZrPvNgysuRfOow38URevgkt+XcYRKwvNujcVV5ITdkGdfq7vikctmNbLfktt9z3I01WSm22+ei806hBvPxx/25RvK0OXxZ/2ohBjq+7489TsfNcweNlt19BSObSVQ2fj7Evn5lAD8HZmOZb1q6mA9vrjJwCbTMnUuuHsWrzUIJQ1NmFVWmgYcrP0o+0YZ2onLrIIKEmObYje84ja1XcFl59gfVt7t+vPj5WVhN+nlZ0ceZjKB62cGylk5DXhCT4uVo6BCekfoDV8yb/zt8N+IpJ2wwl8aAcrr7/fok6DqUNOArHfJ7+gCY5u4zND+/f32iI5FF77yQpwTnQVdhWiljrwE4cuck1wzO+U3TReibJ25/ojwouPOsIhWoqlr5BVTlzSNm5E96ZhYbEEQRDhDAivs4R896moTfmjqGrP66dJDexcRNzYPY/a1bdk4QRAdA1IJEgRBEGEBzbAIgiCIsIAEFkEQBBEWkMAiCIIgwgISWARBEERYQAKLIAiCCAtIYBEEQRBhAQksgiAIIiwggUUQBEGEBSSwCIIgiLCABBZBEAQRFpDAIgiCIMICElgEQRBEWEACiyAIgggLSGARBEEQYUGHFljVK2Q7T+IQZvDdNG7GDN00ebjBLQOby3Mh4emrZui57Si5DrmNrdbWqWaHqqBSXIaKi11XBEFcdDr8DCu5oAK1dXXuY1NcHpLkzjQ6A4V1hWSgrzUk5qL29hI2EBgD18NUh1Zw8/CaUCcI4mLTLgKrrrYW90+erM6I+H9+HSri59dhbwGwaD11IiGBCy02EMhNFNcEQRAdlHYRWIsXL8Y2p1M95//5dSixJaUiubAEmsgyq69MJuNNaiR1xKy7sZEzVzvO2Cp8CLXTZqGK1NRawtS6Hia2QKTLEP6r3XGKfPD7uv8Ao/O6U1cY/bvza6Va0+658yuhzwQ8alQtn3J5zeEMdSGXKyDmOvFWHypXfmXwYyiHqsa1cvP/7OpOd0OD6fnJGMsjlVdNz1Q++Z5c/1I4XpeRk3YACxLU+9ZqTr39yXmX60M8x62izHqZTGl6txNTHUt14fu5GetPLYfPsns/M47ejgxpSHnT3NlvRM2bHoe/9uC7zRJEi+Em8kNNrMPhdbSGquUOJWdLk7iSqVLyHTmK86j5nLEvX8nfJ85VN4f7umlLjhKb7VTcMTK/vArcaYhrT3jGUaeS785Dk+LMlvJkCs/j59exy6vUax42ExM9eTMjwrv9M3iZ9Ws1v5Ibjy/Hkc9K5Y2etp53NR5WdjmvsVJYc10Y0zLVqQGtDgz5MsStuQPpnvAs3/fgbnGtucvPqEo/Z/H4enbmuuZxZkjlVfNvqBs5vDlNrX70uKqWS+Gs6kkuqxdaOoa0LerDu93p9cHR/LjL5nXNUtmihff33Iy/lyZWr2oIr7L7KxN3M9SzKS+a+71eeQ/UHuSyEERraReBNflHP1K6X3YZa7QO9T+/bg2tElgmPHF4/3A5hjT4D03uWCww/NjN/lkn+iP8yOvHbE7TjVV6BqFkLFugjsZ3p8GR47LKF3e3TteApdCU4wtUz5p7MB1YoGcT6NnKdWKsH39tJvg617CKy399GMqlI5fPql2oWJXT89x4vJZ5NcRnXVc6luWVwnu5B2wPBBE62kUl+OSTT+LezEz1nP/n1yGlsR4u2OGwXCRgVE8kLKgX9xvgKk+BPUZctgB5tWLkpCJx14JoB0Y6RvrIV5CwOOziFIhH2owylO7l6pRmlO0Elk6N15wCEWNHcrId1sXldQEsvLmLu1xxsZlYw2q13kJNZKDBhXKveG1wxAGuw77VPjH2FHFmQ0ZRBVJ3jtHSNajCfD27QFg/W9sQVpO19SxWdj5xJqbrauTKEqyZMdOzyMSgoszEwvozwqG1aPVhTTPqawH7EJu4FvDnVe5iJWE+DruAOAeLxYz/58bf725CpnZfVqcmpmF6eSnK+LNtZO0Jy5DdkneWPG/i1ItWtgeCaA3tIrBi4+Lw6muvqS/z+X9+HUqq1+cBBdmsOzfDOzy+4s2zqpCNOoUbpwwu3iO40ToPf3BhtdruWanIRpjCpZ1QhbGH+NuzUTSpHM1qR5OKlJCs5IuBPTkFbFbgLpd2BLFSUOpYzXh1whINrjJxxuFCS0tT7WBVoRXo2fmDl8f8bAXujp8L/2KUVAIf7VyI6beL1sOF1VgXZrrrwIl8R3fNrdX4a1d+OnPR8cuC1kjg58aFFr+3N70USW6hpQ18Mt8Fvtz7CpCeYiEM/cCFkjj1opXtgSBaQ4df1m5EG4Fn1S7DsolWPwbzSLsaJYXiVP3RAmtelkaelcXILPY3ijePhvksR+54205dcSaK3S/zWfmeMAnjxGw4s0vws9mZsD+c0bKOxic2pKQDi56Q6iJYolOQmlyMLHlmVFmArMJspEmjdmM9a+4z1WdWjQIprGfm5e/ZBYKXJwVrJpsWIEwu9ggmBhf+C3c/jTfW53vyap4hsNnXwvpT4iJYygyrVpu35mGRn1mMNggxLUzgz10XJOqMKA950kKF6q28Pv09NxbHCs99VehJxE9dhqwt9+Px3FHiOfimbsFTUt5EPfpqewHbg/abpUUXRCjo8AKrPFeojtRDjMCLfHXc8cjmS97H6v5LACakdOLnV2Ap+Hdcwn1PGupWCkdL2Ezg4WzWEerx5cEVp3ewoSE22wn7Hj3+MVgU50ShoUPROqnKSqmTDQG2iYXimzY9bXYY1HO+0FR6S2uF6okfk4FNdbkeIcuYzvKc53Z3YenbujubJUhhk3amYu987uL/2QWCl2dvgQtZepqxmcBrpuX6TBDkF62DyzQgMLYJsBlWT+HI4+WqRC2/1qsEOSlY+R87RLqsTLl2bPLZRhmJuVD2jZLKOgal6RXSc49HLpvp2aW2n+XSZoq+nxubucnl4M9EzgMTLBOv3IfyGWmG52TJymnAE3r8may+Kvx89hBceyCIUNCFv8gS55cgfPSnCcGO/B0SX0qc5JqJWrVjJzoWfCn5atjf7ugfXgfX1qmtER2ZMFMJhhZVdVNuVGV1OBo3I3vSseAXWxCEBYHUlAQRDlxSAsvwMSQ7VNVNh1VdaLr/uLF5GLNvO22bRLQOsQIyoJqSIMKAS1wlSBAEQYQLl7RKkCAIgggfSGARBEEQYQEJLIIgCCIsIIFFEARBhAUksAiCIIiwgAQWQRAEERaQwCIIgiDCAhJYBEEQRFhAAosgCIIIC0hgEQRBEGEBCSyCIAgiLCCBRRAEQYQFJLAIgiCIsIAEFtEm3CZbclphbp8gCKIFkMDyQ/UKbjdrBjY3ihtuuJVZq/sijNx5VxZ0ks6cl9nbTHwDUrG3rg570/k5QRBE+9FpBdabb76JF154Qf3fFm4d9RUWra8WVwFgwmm1vQK1Hc5Qnm8BGzzxyGWCyWxePQalSOIGAl2ODmoIkyCIzkKnFFj//eijcG7apJ7z//y6tXydlYlpCxK8ZhZWVCMNhRMvLZuutomFqGWCrHY+iSuCINqXTiew+Izq5MmTWLtuHR5lgor/59etnWm9cuZuLNqXjzWTC5hA8oVmzj5rcqYwv+/br6Zm1NzV9z8rZJ9aPG7hqKsT+X81XpO60QtNbaf7nbGV+VRNpGdiIYqQObCLO7yW9mbNDL979iXM8rvjkGdlxrwFzDtBEESI6XQCy+Vy4aZEo96KX/P7rSGnC+veE3OxaUYxsgwdtERjGVzpFdpMo64CS5OLsZoLCxNcWGXVLsPeutyg1Wd1xZlI2pMm4q7Dprg8JPnIR/WKTLgKPPmYOYTdjM5AYZ0T+ciB86hiUFfWLXgNeJr7LURGNBc4Y7AozulOq/Y1OxaN9SeoCYIgLhydTmDZ7XZ8UGkc5vNrfr8txM93Ynrhauv3QEwo5LpVgTakpKeg3OVZglB3uhsa2IxEFVYtfL8Vm+3EXkndFj91GZILS3wKEU+6NsQn+k8pdvnPmaASF0zolpZnY5Os2kvMVoVvCc2aCILoAHQ6gXXXXXehT58+eGjaNHXRBf/Pr/n9thGP7AJg0RPWKjlN1acdkZOKxF3Bq/cgK9eOTaFYjBHtgC/RGz+fzcAg1JItXZnY4EJ5sh0x4lLDBkccm7UeblFMBEEQ7UKnXHTxPBNUmVlZ6jn/z69DgW3iMixFHvK21uOy+i/FXU1YqasDhSqtaUuOcBHc/0dsKnAhy8+7raBprIc/5SYXWjwPe9NLkdQSoRVjR3K5y3Jpun1Im8UsQRBEm+mUAovDZ1R80UXbZ1YyNmQ8vQxfTMrEAlwh7jWjvlbu1JtRtrNMnGvEXvk1YiYWYq9JaNmGsLmSpN5r3pqHzOJ6caXB32EVu1Vyzdj8RB5QkG3xDoy5rfAIKDXulhCdgtRk03u6ygJkFWYjzbSUnRMo7+qM09c7P4IgiFbQaQVWuxGdgdVsBhXr6C5uMCH2cDbWTNZVgnlwxaUINyN8Cbi6eIP5U1fT6Ys5hCoxDzPhzHZonnUefB32PXrc2qII66XzNjhYDPybKNXvZEgqSKHOHMvu+5x1sXIUVWBprb7SUcTha4FIMHknCIIIIV0UhjgnOhp8OfvL9hYv1Ggf+JL51bC/zVcUilsEQRAXEJphEcFRWYI1yalIIWFFEMRFggQW4R/9o+XJLix9uiPM9AiCuFQhlSBBEAQRFtAMiyAIgggLSGARBEEQYQEJLD/Iu1doh/zhr7TZq75JrbrRrL5hrLX9qJahpaFuYnsxUN9fyWUOhZmSlqLVgfxNl/fGuxcC/Vn8zfPcCYK4oHRagRUqe1jJ7s1k60wf/mrfLdlfZp2pvvRc3WhWX/ZtbT/KF1w4mgVT9YoxcD1cd3FMlnDhy8vVgo162wP+QTKvg4ttvsTzLAaIOwRBXGg6pcAKpT0sGXVrpmQX6t0zDC60WGfaLt9JNSNmavACL/SkYNlF//6rGQ1Dll3EOtC52M+CIAhOpxNYobaHZaQBrnJxqqvHtopl36qKSlaZSSpDHX2JuHoY/SUsAP40KdJzv7IYST422nWnU8lVkHp85n0KNZWkJz2Pu/VsTrrH8zl2jNg1Q8+nhyv+uaVV6ZpRVXsGv+xwq/p4PGOQNXmMdt/nDh1CZeh2N6Xv67566GXjbn7q09+zUNXAprpzx+FdzwRBtAG+rL0z8fzzz6uHjNW9YKha7lBytjSJK0Vp2pKjxGY7Fe1OlZLvcCixy6vUKw1+L0dxHuXnTYoz26Hk71MdFGVfvhLryGc+BPzaHZd3WmZ3IyJtt7uWlicvmrvPvJvjPupUcvS8+c1nG9P1h5wHDkvXXXciXv1ajVNN05w+w084GWN9ByiXoQ40t0f/yk5Znsezn5Acf9VyU93JZSIIok10uhlWqO1hFamzHm20nLQz1bRNUgqWTg3u3Ur1nmIky5vWcltTKEWZafYSPCxt94e82n6GqK3XZgHqrhTLsEx692WbOBPTy0V6iWmec0bz3lKUz0hT8xY4n21I1ydslvREHuyvSe/LEnMlFVw80mYYzZzUdemlvldSDU4abHj5D6fCZkHcNpmcT7/lsmDwFX/DUwMzMWafYlAVxs+Xy8DqGbIKmSCIttDpBFao7WGxUbh70UXr31VpO7rLwk/dyLa8DJKdx5DRfNgFxDlMeY2BPVlPT9sMt3Qv74757vIQgrdt+QycrjVc8JSmV5jeEQlVn8hHwgLjLvaYH6cZxPRajBEgHFfhGTYGbh25N16Pf7C24fVeS6gItfQzsbD+jHAgCKKtdMpFF+1lD6v1aIYQ89lo3C38xOHV4YUA1fSH5ewgBXZhodGWlMoE0x40c0vD0PcIbFs+g0nXC8vZDhc62qo8Pf2q5aad4FfUYlNcnsnmV6BwFjO5VlJw4BDsuWOM76i4sBrrwkyRdm2dE/nuXf0JgmgrnVJgcdrHHlbrib+dmyDxvQAhpKgqP25oUurKt+ZhkVswMaJT4Mx+C79d+wcgPcU922hTPoNJV4Z18Pfc/KHFHoV8cYss5KpRUihOBbHKvzULywah5T+crkIMxSBB+eq7yGUCySC0zFabK0vYDOsUlK7sXJ15eS9gIQgieDqtwOpwJOaK77g86ip55Vv81GUA6/ysVuW1HP4NmNaZ6ml5v3+zISUdWFc8EjPl2U2AfPonmHR1tNnOQUelZqfLkJZkv0u9XwLMEMFMxM+vUK1AJ6n15iccn8lx4VUo2ftiR9s+AGblfVs8N55v9X2fZJNsD5utOnqiyznhnSCINkGb37YbfKk02Y8iCIIIFTTDai/IfhRBEERIIYEVavQPR8l+FEEQREghlSBBEAQRFtAMiyAIgggLSGARBEEQYQEJLD9o9rCslpmLzVItlp+rYYJcBu6x6+Q7Phket7oMm3/TE/RS8xAjdnKQl4OTfSqCIC4EnVZghcoe1q2jvsKi9UF2xpUFWG2vCHoLJ9vEQuy1r2ZC0bT8XRUK3h/v8g9l0/Ywgch3U2jj1kKtg387pe3k0B47dLQEsk9FEJcenVJghdIe1tdZmZi2ICGoEXw10lpsbJELrVq30cfAcKFVe7GMKjY2wPH0xTXoqEH2qQjiUqTTCaxQ28N65czdWLQvP8B2RZp6KmuyvouC8Gs1U5LvCfWaYdcFNkvrMjATRVio7TbhVrVpaeh+3ff5MnqzetB9z0LVaOVf4Nc+FQ83NhNZYhcJ33aeRD7dafA8SPH5uq8eel5Fvsk+FUEQEp1OYLlcLtyUaBx682t+vzXkdGEdXGIuNs0oRpav9zSNZXCl66b0K7A0uRireccYnYJUdl4izc6q1+cBqvkOrl7jG7F6NkpN4x5YWspRJ3KQj038vrobORcC2o7m7jRqMzUBZzIVovp9uRjTH265ylCb7Yn8vL0MycjGJrEbevUeaPnhx2vZKM8t9ggQN1o+VZMfusqysgSQysj3GixW64Nv46Tfr2P1CyQXLJNmmmVY9DKwTHXX6tRn/TM+u4L9YcJqAhP2vE71mW5w+SYIIhzodAIr1PawdOLns862cLX1wojoDOS6VYF8j74UlKv2NLTzNXv0LpJvxsqEWJJHlHhsNcUj3peKi++oXp4t7fmn2WvS4uU2n5i7aiqEIfymtUldpgtTj/ovkJ0nsk9FEER70+kEVqjtYXkQG6v6UEVpKwq1I3JSkbjLZy0zmaAr0Ub1fLumGTPFLIJ1wkUVSN0pNor1M3vgu4AX1QsVoX5MLnZ34OrGuTvL1HNujFGbwbUeS/tUBvWlhZ0nsk9FEEQ70ykXXbSXPSzbxGXqbtx5W+txWf2X4q4mrNTVgUL11LQlR7hw+KxCUwt+tHMhpt8ud+hcaAmVGDJ9C60YO3Kyndirq7b0Q+/kuepRtQrcjD1MWMozuBZjNdvhnX4gO09kn4ogiHamUwosTvvYw2IC5ull+GJSJhaAvzThaFZ67UP0Dp5b8C0T5xrcxtTC3U/jjfX5kqquGgWSgIqxp4gzC1SBZLQzZUQzFbJt7W/xFhNsng13NWu/bnUhT5PPzHzBOnhL+1Q+7DzJkH0qgiDam04rsNqN6AysZjOoWPdIXbxPmqyrnfLgijMJn8Q05Betg8ugqmPCpNZjm0m1G6Wr01gaM/kiD+6mCjU+EzPameKHvNSeWxDuWbwWdsNiC03Aana2eJgSpL2WLdzMaLMdS/tUPuw8WUH2qQiCaC9o81uCIAgiLKAZFkEQBBEWkMAiCIIgwgISWARBEERYQAKLIAiCCAtIYBEEQRBhAQksH/CPga03StV2bmjb8muO2OD1Yn8HpG4O629j39BzcexntRTtObffZrna5r9tb0cEcenQaQVWW+1h8Y99LTdKDclefR0E/vHsy3bsvVjmSlrMhRPyHntbbdg1xC/a5r+h+GiaIC4VOqXACok9LHWjVONO6xy+V1/5jLQw6eADkYJlF8UQZEeH7G0RREek0wms0NnD0nYW9+y0ztG2XdL2A7RSDUpqJK5q47stqCo3sdOCYZ89E7I/dnipokzunnQ11ZJ3OD1/srs8O2HuT4wRpj680dV2nk19NbWhbDPLk5YxD9ohpWXIewEqup8VDgHqUEbdSikTC1GEzIFd3HWp5XOzGsZoT0tPzxiXd7nMafH0xyBJ351DVl2KZ7pZhNXyreVXj8ur3OZn7r5nVXaCIPzCd7roTDz//PPqIWN1Lyj25SuxjnylSlyar5u25Cixy92uinLUqeTo7swvr17ZvWq5Q7quUvIdOYrzqLha7jsdr2uWjnMfP+FxOJR89Zwjx9mkOLNZelI4Nf1sJ3PhaO6esEZ42Xj+dXc1LEsrZ4sW2itPEtyvT38s7/dK9eK3Dr0w1hlHy+e90j1/deJdLu05TTTUmTvv5jpS/Uph9TqW828orzm/cnz+658gCG863QwrpPawTGrB6j3FSJb2A9RMh3hsZJnVhUw4GMxtcDMgybqpERO+7TaxkTg3yCjvaB6dgQyuruLmSpKXIdututL27vNsdgtDODX9che4pa5gYB2xWy3G3+kBkk0uX7al2AxC3u3dXGc877+RdrMPVIfBELv85x7Dj0HUiVwuJGbDmf0hdn/Gzv3aHdPgz9Qdt/CvG7lU4fsXuo12toetMoK4dOl0Aiu09rB4Z6cbYPQ2vmjskLi6EFg61U9XG+2AT7Gpqrx0tZJst8m847mH5sMu1BVnejZ3ZUdSbpkwHhliYuxIlnc+t4KXwWDbyryTvRUtrMMAtLpO+F7Gnx7ya3fMC/Nu8Co2OOI8RipDbauMIC5lOuWii1Daw+K7oI9YsBPV6sg9VTLdocFnHkWTytHMR8/wdjfQWM/mJEa+1U1d+LTbpJkIsepvbUPs6mxBtzXlPryMKF4I2EzQy7aVsfPWaXB5m18Jug4D0No66fYN+zP4ev92x8xwIe5jxuoW0qG0VUYQlzidUmBxQmYPi3U4Wdm/Q8LNC5GcnuLdcakqpRL8bHamybQH1JG+Z1GD1qFbjrD92psSZvYnS99KMQG3mcfL1XKFmR3ixb0v21bczpfh8wCW9yVmq8N+6rDFtLJOBnGBFdDumAnuP7kYWaaFGVmFstrPl60yGW0BhtdCE4IgDHRagRU6NIER68jxMTrWOqTKStk4o+DB12Hfo6uXtA7d/F3PZdw2kw+7TTq2iYXYW+DyqKrGlvKJF0Oz/+Ry2+Lix4X5TsmA2kmz/xa2rbzy/gTwC4NFZo6fOjQg2dfyueKyLXUS2O6YEe6/Akslu2ZxXCVq+q7N2lYZQRAthexhhQC+VDrJNdOoduLLl/lHufSdU1BY1iFBEIQEzbDaSuNmZE861qaFApc8VIcEQQQBCaxWo713iBubhzH7tnuWVRMtgOqQIIjgIZUgQRAEERbQDIsgCIIIC0hgEQRBEGEBCSyCIAgiLCCBRRAEQYQFJLAIgiCIsIAEFkEQBBEWkMAiCIIgwgISWARBEERYQAKLIAiCCAtIYBEEQRBhAQksgiAIIiwggUUQBEGEAcD/Ayh4BAZfHm0vAAAAAElFTkSuQmCC;" parent="1" vertex="1">
          <mxGeometry x="200" y="10" width="428" height="223" as="geometry" />
        </mxCell>
        <mxCell id="cOqHcEuYxocCmDUIh9o3-2" value="" style="ellipse;whiteSpace=wrap;html=1;aspect=fixed;" vertex="1" parent="1">
          <mxGeometry x="359" y="320" width="80" height="80" as="geometry" />
        </mxCell>
        <mxCell id="cOqHcEuYxocCmDUIh9o3-3" value="" style="rounded=0;whiteSpace=wrap;html=1;" vertex="1" parent="1">
          <mxGeometry x="480" y="340" width="79" height="40" as="geometry" />
        </mxCell>
        <mxCell id="cOqHcEuYxocCmDUIh9o3-6" value="" style="group" vertex="1" connectable="0" parent="1">
          <mxGeometry x="552" y="970" width="90" height="35" as="geometry" />
        </mxCell>
        <mxCell id="cOqHcEuYxocCmDUIh9o3-4" value="" style="endArrow=none;html=1;rounded=0;" edge="1" parent="cOqHcEuYxocCmDUIh9o3-6">
          <mxGeometry width="50" height="50" relative="1" as="geometry">
            <mxPoint as="sourcePoint" />
            <mxPoint x="90" as="targetPoint" />
          </mxGeometry>
        </mxCell>
        <mxCell id="cOqHcEuYxocCmDUIh9o3-5" value="" style="endArrow=none;html=1;rounded=0;" edge="1" parent="cOqHcEuYxocCmDUIh9o3-6">
          <mxGeometry width="50" height="50" relative="1" as="geometry">
            <mxPoint y="20" as="sourcePoint" />
            <mxPoint x="90" y="20" as="targetPoint" />
          </mxGeometry>
        </mxCell>
        <mxCell id="cOqHcEuYxocCmDUIh9o3-17" value="visits" style="text;html=1;align=center;verticalAlign=middle;resizable=0;points=[];autosize=1;strokeColor=none;fillColor=none;" vertex="1" parent="cOqHcEuYxocCmDUIh9o3-6">
          <mxGeometry x="20" width="50" height="30" as="geometry" />
        </mxCell>
        <mxCell id="cOqHcEuYxocCmDUIh9o3-8" value="purchase of machinery" style="ellipse;whiteSpace=wrap;html=1;aspect=fixed;" vertex="1" parent="1">
          <mxGeometry x="253" y="610" width="80" height="80" as="geometry" />
        </mxCell>
        <mxCell id="cOqHcEuYxocCmDUIh9o3-9" value="accepting a new customer" style="ellipse;whiteSpace=wrap;html=1;aspect=fixed;" vertex="1" parent="1">
          <mxGeometry x="493" y="610" width="80" height="80" as="geometry" />
        </mxCell>
        <mxCell id="cOqHcEuYxocCmDUIh9o3-10" value="customer visit" style="ellipse;whiteSpace=wrap;html=1;aspect=fixed;" vertex="1" parent="1">
          <mxGeometry x="493" y="850" width="80" height="80" as="geometry" />
        </mxCell>
        <mxCell id="cOqHcEuYxocCmDUIh9o3-11" value="payment of wages" style="ellipse;whiteSpace=wrap;html=1;aspect=fixed;" vertex="1" parent="1">
          <mxGeometry x="253" y="850" width="80" height="80" as="geometry" />
        </mxCell>
        <mxCell id="cOqHcEuYxocCmDUIh9o3-12" value="" style="group" vertex="1" connectable="0" parent="1">
          <mxGeometry x="239" y="360" width="90" height="20" as="geometry" />
        </mxCell>
        <mxCell id="cOqHcEuYxocCmDUIh9o3-13" value="" style="endArrow=none;html=1;rounded=0;" edge="1" parent="cOqHcEuYxocCmDUIh9o3-12">
          <mxGeometry width="50" height="50" relative="1" as="geometry">
            <mxPoint as="sourcePoint" />
            <mxPoint x="90" as="targetPoint" />
          </mxGeometry>
        </mxCell>
        <mxCell id="cOqHcEuYxocCmDUIh9o3-14" value="" style="endArrow=none;html=1;rounded=0;" edge="1" parent="cOqHcEuYxocCmDUIh9o3-12">
          <mxGeometry width="50" height="50" relative="1" as="geometry">
            <mxPoint y="20" as="sourcePoint" />
            <mxPoint x="90" y="20" as="targetPoint" />
          </mxGeometry>
        </mxCell>
        <mxCell id="cOqHcEuYxocCmDUIh9o3-19" value="manager" style="rounded=0;whiteSpace=wrap;html=1;" vertex="1" parent="1">
          <mxGeometry x="74" y="580" width="79" height="40" as="geometry" />
        </mxCell>
        <mxCell id="cOqHcEuYxocCmDUIh9o3-21" value="" style="endArrow=classic;html=1;rounded=0;entryX=0;entryY=1;entryDx=0;entryDy=0;exitX=0.75;exitY=1;exitDx=0;exitDy=0;" edge="1" parent="1" source="cOqHcEuYxocCmDUIh9o3-19" target="cOqHcEuYxocCmDUIh9o3-8">
          <mxGeometry width="50" height="50" relative="1" as="geometry">
            <mxPoint x="154" y="580" as="sourcePoint" />
            <mxPoint x="304" y="690" as="targetPoint" />
            <Array as="points">
              <mxPoint x="164" y="680" />
            </Array>
          </mxGeometry>
        </mxCell>
        <mxCell id="cOqHcEuYxocCmDUIh9o3-23" value="order" style="text;html=1;align=center;verticalAlign=middle;resizable=0;points=[];autosize=1;strokeColor=none;fillColor=none;" vertex="1" parent="1">
          <mxGeometry x="164" y="685" width="50" height="30" as="geometry" />
        </mxCell>
        <mxCell id="cOqHcEuYxocCmDUIh9o3-24" value="" style="endArrow=classic;html=1;rounded=0;fontSize=19;exitX=0.5;exitY=0;exitDx=0;exitDy=0;entryX=0.75;entryY=0;entryDx=0;entryDy=0;" edge="1" parent="1" source="cOqHcEuYxocCmDUIh9o3-8" target="cOqHcEuYxocCmDUIh9o3-19">
          <mxGeometry width="50" height="50" relative="1" as="geometry">
            <mxPoint x="324" y="650" as="sourcePoint" />
            <mxPoint x="144" y="550" as="targetPoint" />
            <Array as="points">
              <mxPoint x="234" y="550" />
            </Array>
          </mxGeometry>
        </mxCell>
        <mxCell id="cOqHcEuYxocCmDUIh9o3-25" value="wrong order" style="text;html=1;align=center;verticalAlign=middle;resizable=0;points=[];autosize=1;strokeColor=none;fillColor=none;" vertex="1" parent="1">
          <mxGeometry x="244" y="550" width="90" height="30" as="geometry" />
        </mxCell>
        <mxCell id="cOqHcEuYxocCmDUIh9o3-26" value="" style="group" vertex="1" connectable="0" parent="1">
          <mxGeometry x="104" y="770" width="90" height="35" as="geometry" />
        </mxCell>
        <mxCell id="cOqHcEuYxocCmDUIh9o3-27" value="" style="endArrow=none;html=1;rounded=0;" edge="1" parent="cOqHcEuYxocCmDUIh9o3-26">
          <mxGeometry width="50" height="50" relative="1" as="geometry">
            <mxPoint as="sourcePoint" />
            <mxPoint x="90" as="targetPoint" />
          </mxGeometry>
        </mxCell>
        <mxCell id="cOqHcEuYxocCmDUIh9o3-28" value="" style="endArrow=none;html=1;rounded=0;" edge="1" parent="cOqHcEuYxocCmDUIh9o3-26">
          <mxGeometry width="50" height="50" relative="1" as="geometry">
            <mxPoint y="20" as="sourcePoint" />
            <mxPoint x="90" y="20" as="targetPoint" />
          </mxGeometry>
        </mxCell>
        <mxCell id="cOqHcEuYxocCmDUIh9o3-29" value="orders" style="text;html=1;align=center;verticalAlign=middle;resizable=0;points=[];autosize=1;strokeColor=none;fillColor=none;" vertex="1" parent="cOqHcEuYxocCmDUIh9o3-26">
          <mxGeometry x="15" width="60" height="30" as="geometry" />
        </mxCell>
        <mxCell id="cOqHcEuYxocCmDUIh9o3-30" value="" style="endArrow=classic;html=1;rounded=0;fontSize=19;exitX=0.5;exitY=1;exitDx=0;exitDy=0;" edge="1" parent="1" source="cOqHcEuYxocCmDUIh9o3-8">
          <mxGeometry width="50" height="50" relative="1" as="geometry">
            <mxPoint x="344" y="650" as="sourcePoint" />
            <mxPoint x="194" y="770" as="targetPoint" />
          </mxGeometry>
        </mxCell>
        <mxCell id="cOqHcEuYxocCmDUIh9o3-31" value="worker" style="rounded=0;whiteSpace=wrap;html=1;" vertex="1" parent="1">
          <mxGeometry x="642" y="550" width="79" height="40" as="geometry" />
        </mxCell>
        <mxCell id="cOqHcEuYxocCmDUIh9o3-32" value="" style="endArrow=classic;html=1;rounded=0;fontSize=19;entryX=0.5;entryY=1;entryDx=0;entryDy=0;" edge="1" parent="1" target="cOqHcEuYxocCmDUIh9o3-31">
          <mxGeometry width="50" height="50" relative="1" as="geometry">
            <mxPoint x="573" y="660" as="sourcePoint" />
            <mxPoint x="623" y="610" as="targetPoint" />
            <Array as="points">
              <mxPoint x="644" y="650" />
            </Array>
          </mxGeometry>
        </mxCell>
        <mxCell id="cOqHcEuYxocCmDUIh9o3-33" value="" style="endArrow=classic;html=1;rounded=0;fontSize=19;entryX=0.5;entryY=0;entryDx=0;entryDy=0;exitX=0;exitY=0;exitDx=0;exitDy=0;" edge="1" parent="1" source="cOqHcEuYxocCmDUIh9o3-31" target="cOqHcEuYxocCmDUIh9o3-9">
          <mxGeometry width="50" height="50" relative="1" as="geometry">
            <mxPoint x="583" y="670" as="sourcePoint" />
            <mxPoint x="691.5" y="600" as="targetPoint" />
            <Array as="points">
              <mxPoint x="583" y="570" />
            </Array>
          </mxGeometry>
        </mxCell>
        <mxCell id="cOqHcEuYxocCmDUIh9o3-34" value="accept&lt;span style=&quot;color: rgba(0, 0, 0, 0); font-family: monospace; font-size: 0px; text-align: start;&quot;&gt;%3CmxGraphModel%3E%3Croot%3E%3CmxCell%20id%3D%220%22%2F%3E%3CmxCell%20id%3D%221%22%20parent%3D%220%22%2F%3E%3CmxCell%20id%3D%222%22%20value%3D%22wrong%20order%22%20style%3D%22text%3Bhtml%3D1%3Balign%3Dcenter%3BverticalAlign%3Dmiddle%3Bresizable%3D0%3Bpoints%3D%5B%5D%3Bautosize%3D1%3BstrokeColor%3Dnone%3BfillColor%3Dnone%3B%22%20vertex%3D%221%22%20parent%3D%221%22%3E%3CmxGeometry%20x%3D%22230%22%20y%3D%22420%22%20width%3D%2290%22%20height%3D%2230%22%20as%3D%22geometry%22%2F%3E%3C%2FmxCell%3E%3C%2Froot%3E%3C%2FmxGraphModel%3E&lt;/span&gt;" style="text;html=1;align=center;verticalAlign=middle;resizable=0;points=[];autosize=1;strokeColor=none;fillColor=none;" vertex="1" parent="1">
          <mxGeometry x="489" y="555" width="60" height="30" as="geometry" />
        </mxCell>
        <mxCell id="cOqHcEuYxocCmDUIh9o3-35" value="denied" style="text;html=1;align=center;verticalAlign=middle;resizable=0;points=[];autosize=1;strokeColor=none;fillColor=none;" vertex="1" parent="1">
          <mxGeometry x="604" y="660" width="60" height="30" as="geometry" />
        </mxCell>
        <mxCell id="cOqHcEuYxocCmDUIh9o3-36" value="" style="group" vertex="1" connectable="0" parent="1">
          <mxGeometry x="664" y="740" width="90" height="35" as="geometry" />
        </mxCell>
        <mxCell id="cOqHcEuYxocCmDUIh9o3-37" value="" style="endArrow=none;html=1;rounded=0;" edge="1" parent="cOqHcEuYxocCmDUIh9o3-36">
          <mxGeometry width="50" height="50" relative="1" as="geometry">
            <mxPoint as="sourcePoint" />
            <mxPoint x="90" as="targetPoint" />
          </mxGeometry>
        </mxCell>
        <mxCell id="cOqHcEuYxocCmDUIh9o3-38" value="" style="endArrow=none;html=1;rounded=0;" edge="1" parent="cOqHcEuYxocCmDUIh9o3-36">
          <mxGeometry width="50" height="50" relative="1" as="geometry">
            <mxPoint y="20" as="sourcePoint" />
            <mxPoint x="90" y="20" as="targetPoint" />
          </mxGeometry>
        </mxCell>
        <mxCell id="cOqHcEuYxocCmDUIh9o3-39" value="customers" style="text;html=1;align=center;verticalAlign=middle;resizable=0;points=[];autosize=1;strokeColor=none;fillColor=none;" vertex="1" parent="cOqHcEuYxocCmDUIh9o3-36">
          <mxGeometry x="5" width="80" height="30" as="geometry" />
        </mxCell>
        <mxCell id="cOqHcEuYxocCmDUIh9o3-40" value="" style="endArrow=classic;html=1;rounded=0;fontSize=19;exitX=0.5;exitY=1;exitDx=0;exitDy=0;entryX=0.027;entryY=0.662;entryDx=0;entryDy=0;entryPerimeter=0;" edge="1" parent="1" source="cOqHcEuYxocCmDUIh9o3-9" target="cOqHcEuYxocCmDUIh9o3-39">
          <mxGeometry width="50" height="50" relative="1" as="geometry">
            <mxPoint x="554" y="760" as="sourcePoint" />
            <mxPoint x="654" y="790" as="targetPoint" />
            <Array as="points">
              <mxPoint x="564" y="760" />
            </Array>
          </mxGeometry>
        </mxCell>
        <mxCell id="cOqHcEuYxocCmDUIh9o3-41" value="customer" style="text;html=1;align=center;verticalAlign=middle;resizable=0;points=[];autosize=1;strokeColor=none;fillColor=none;" vertex="1" parent="1">
          <mxGeometry x="584" y="770" width="70" height="30" as="geometry" />
        </mxCell>
        <mxCell id="cOqHcEuYxocCmDUIh9o3-42" value="" style="endArrow=classic;html=1;rounded=0;fontSize=19;entryX=0.977;entryY=0.391;entryDx=0;entryDy=0;entryPerimeter=0;exitX=0.491;exitY=0.995;exitDx=0;exitDy=0;exitPerimeter=0;" edge="1" parent="1" source="cOqHcEuYxocCmDUIh9o3-39" target="cOqHcEuYxocCmDUIh9o3-10">
          <mxGeometry width="50" height="50" relative="1" as="geometry">
            <mxPoint x="694" y="830" as="sourcePoint" />
            <mxPoint x="514" y="670" as="targetPoint" />
          </mxGeometry>
        </mxCell>
        <mxCell id="cOqHcEuYxocCmDUIh9o3-43" value="is in customer databse" style="text;html=1;align=center;verticalAlign=middle;resizable=0;points=[];autosize=1;strokeColor=none;fillColor=none;" vertex="1" parent="1">
          <mxGeometry x="611.5" y="840" width="140" height="30" as="geometry" />
        </mxCell>
        <mxCell id="cOqHcEuYxocCmDUIh9o3-44" value="" style="endArrow=classic;html=1;rounded=0;fontSize=19;exitX=0.316;exitY=-0.02;exitDx=0;exitDy=0;exitPerimeter=0;entryX=0;entryY=1;entryDx=0;entryDy=0;" edge="1" parent="1" source="cOqHcEuYxocCmDUIh9o3-10" target="cOqHcEuYxocCmDUIh9o3-9">
          <mxGeometry width="50" height="50" relative="1" as="geometry">
            <mxPoint x="464" y="720" as="sourcePoint" />
            <mxPoint x="514" y="670" as="targetPoint" />
            <Array as="points">
              <mxPoint x="444" y="750" />
            </Array>
          </mxGeometry>
        </mxCell>
        <mxCell id="cOqHcEuYxocCmDUIh9o3-46" value="creation of new customer" style="text;html=1;align=center;verticalAlign=middle;resizable=0;points=[];autosize=1;strokeColor=none;fillColor=none;" vertex="1" parent="1">
          <mxGeometry x="364" y="800" width="160" height="30" as="geometry" />
        </mxCell>
        <mxCell id="cOqHcEuYxocCmDUIh9o3-49" value="" style="endArrow=classic;html=1;rounded=0;fontSize=19;entryX=0.669;entryY=0.043;entryDx=0;entryDy=0;entryPerimeter=0;exitX=1;exitY=1;exitDx=0;exitDy=0;" edge="1" parent="1" source="cOqHcEuYxocCmDUIh9o3-10" target="cOqHcEuYxocCmDUIh9o3-17">
          <mxGeometry width="50" height="50" relative="1" as="geometry">
            <mxPoint x="454" y="860" as="sourcePoint" />
            <mxPoint x="504" y="810" as="targetPoint" />
          </mxGeometry>
        </mxCell>
        <mxCell id="cOqHcEuYxocCmDUIh9o3-51" value="entry" style="text;html=1;align=center;verticalAlign=middle;resizable=0;points=[];autosize=1;strokeColor=none;fillColor=none;" vertex="1" parent="1">
          <mxGeometry x="584" y="920" width="50" height="30" as="geometry" />
        </mxCell>
        <mxCell id="cOqHcEuYxocCmDUIh9o3-52" value="" style="group" vertex="1" connectable="0" parent="1">
          <mxGeometry x="74" y="1010" width="90" height="35" as="geometry" />
        </mxCell>
        <mxCell id="cOqHcEuYxocCmDUIh9o3-53" value="" style="endArrow=none;html=1;rounded=0;" edge="1" parent="cOqHcEuYxocCmDUIh9o3-52">
          <mxGeometry width="50" height="50" relative="1" as="geometry">
            <mxPoint as="sourcePoint" />
            <mxPoint x="90" as="targetPoint" />
          </mxGeometry>
        </mxCell>
        <mxCell id="cOqHcEuYxocCmDUIh9o3-54" value="" style="endArrow=none;html=1;rounded=0;" edge="1" parent="cOqHcEuYxocCmDUIh9o3-52">
          <mxGeometry width="50" height="50" relative="1" as="geometry">
            <mxPoint y="20" as="sourcePoint" />
            <mxPoint x="90" y="20" as="targetPoint" />
          </mxGeometry>
        </mxCell>
        <mxCell id="cOqHcEuYxocCmDUIh9o3-55" value="coaches" style="text;html=1;align=center;verticalAlign=middle;resizable=0;points=[];autosize=1;strokeColor=none;fillColor=none;" vertex="1" parent="cOqHcEuYxocCmDUIh9o3-52">
          <mxGeometry x="10" width="70" height="30" as="geometry" />
        </mxCell>
        <mxCell id="cOqHcEuYxocCmDUIh9o3-60" value="" style="group" vertex="1" connectable="0" parent="1">
          <mxGeometry x="244" y="1030" width="95" height="35" as="geometry" />
        </mxCell>
        <mxCell id="cOqHcEuYxocCmDUIh9o3-61" value="" style="endArrow=none;html=1;rounded=0;" edge="1" parent="cOqHcEuYxocCmDUIh9o3-60">
          <mxGeometry width="50" height="50" relative="1" as="geometry">
            <mxPoint as="sourcePoint" />
            <mxPoint x="90" as="targetPoint" />
          </mxGeometry>
        </mxCell>
        <mxCell id="cOqHcEuYxocCmDUIh9o3-62" value="" style="endArrow=none;html=1;rounded=0;" edge="1" parent="cOqHcEuYxocCmDUIh9o3-60">
          <mxGeometry width="50" height="50" relative="1" as="geometry">
            <mxPoint y="20" as="sourcePoint" />
            <mxPoint x="90" y="20" as="targetPoint" />
          </mxGeometry>
        </mxCell>
        <mxCell id="cOqHcEuYxocCmDUIh9o3-63" value="coaches hours" style="text;html=1;align=center;verticalAlign=middle;resizable=0;points=[];autosize=1;strokeColor=none;fillColor=none;" vertex="1" parent="cOqHcEuYxocCmDUIh9o3-60">
          <mxGeometry x="-5" width="100" height="30" as="geometry" />
        </mxCell>
        <mxCell id="cOqHcEuYxocCmDUIh9o3-65" value="coach" style="rounded=0;whiteSpace=wrap;html=1;" vertex="1" parent="1">
          <mxGeometry x="264" y="760" width="79" height="40" as="geometry" />
        </mxCell>
        <mxCell id="cOqHcEuYxocCmDUIh9o3-67" value="" style="endArrow=classic;html=1;rounded=0;fontSize=19;exitX=0;exitY=1;exitDx=0;exitDy=0;entryX=0.306;entryY=0.063;entryDx=0;entryDy=0;entryPerimeter=0;" edge="1" parent="1" source="cOqHcEuYxocCmDUIh9o3-65" target="cOqHcEuYxocCmDUIh9o3-11">
          <mxGeometry width="50" height="50" relative="1" as="geometry">
            <mxPoint x="204" y="920" as="sourcePoint" />
            <mxPoint x="224" y="970" as="targetPoint" />
          </mxGeometry>
        </mxCell>
        <mxCell id="cOqHcEuYxocCmDUIh9o3-69" value="information" style="text;html=1;align=center;verticalAlign=middle;resizable=0;points=[];autosize=1;strokeColor=none;fillColor=none;" vertex="1" parent="1">
          <mxGeometry x="194" y="820" width="80" height="30" as="geometry" />
        </mxCell>
        <mxCell id="cOqHcEuYxocCmDUIh9o3-71" value="coach" style="text;html=1;align=center;verticalAlign=middle;resizable=0;points=[];autosize=1;strokeColor=none;fillColor=none;" vertex="1" parent="1">
          <mxGeometry x="144" y="920" width="60" height="30" as="geometry" />
        </mxCell>
        <mxCell id="cOqHcEuYxocCmDUIh9o3-74" value="" style="endArrow=classic;html=1;rounded=0;fontSize=19;exitX=0.553;exitY=-0.079;exitDx=0;exitDy=0;exitPerimeter=0;entryX=0.056;entryY=0.786;entryDx=0;entryDy=0;entryPerimeter=0;" edge="1" parent="1" source="cOqHcEuYxocCmDUIh9o3-55" target="cOqHcEuYxocCmDUIh9o3-11">
          <mxGeometry width="50" height="50" relative="1" as="geometry">
            <mxPoint x="274" y="920" as="sourcePoint" />
            <mxPoint x="324" y="870" as="targetPoint" />
          </mxGeometry>
        </mxCell>
        <mxCell id="cOqHcEuYxocCmDUIh9o3-75" value="hours" style="text;html=1;align=center;verticalAlign=middle;resizable=0;points=[];autosize=1;strokeColor=none;fillColor=none;" vertex="1" parent="1">
          <mxGeometry x="258" y="980" width="50" height="30" as="geometry" />
        </mxCell>
        <mxCell id="cOqHcEuYxocCmDUIh9o3-76" value="" style="endArrow=classic;html=1;rounded=0;fontSize=19;exitX=0.75;exitY=0;exitDx=0;exitDy=0;exitPerimeter=0;entryX=0.648;entryY=1.01;entryDx=0;entryDy=0;entryPerimeter=0;" edge="1" parent="1" source="cOqHcEuYxocCmDUIh9o3-63" target="cOqHcEuYxocCmDUIh9o3-11">
          <mxGeometry width="50" height="50" relative="1" as="geometry">
            <mxPoint x="183.99999999999991" y="1045" as="sourcePoint" />
            <mxPoint x="318.77000000000004" y="950.2500000000001" as="targetPoint" />
          </mxGeometry>
        </mxCell>
        <mxCell id="cOqHcEuYxocCmDUIh9o3-77" value="" style="endArrow=classic;html=1;rounded=0;fontSize=19;entryX=0.75;entryY=1;entryDx=0;entryDy=0;exitX=0.911;exitY=0.234;exitDx=0;exitDy=0;exitPerimeter=0;" edge="1" parent="1" source="cOqHcEuYxocCmDUIh9o3-11" target="cOqHcEuYxocCmDUIh9o3-65">
          <mxGeometry width="50" height="50" relative="1" as="geometry">
            <mxPoint x="274" y="920" as="sourcePoint" />
            <mxPoint x="324" y="870" as="targetPoint" />
          </mxGeometry>
        </mxCell>
        <mxCell id="cOqHcEuYxocCmDUIh9o3-78" value="payment" style="text;html=1;align=center;verticalAlign=middle;resizable=0;points=[];autosize=1;strokeColor=none;fillColor=none;" vertex="1" parent="1">
          <mxGeometry x="324" y="840" width="70" height="30" as="geometry" />
        </mxCell>
        <mxCell id="cOqHcEuYxocCmDUIh9o3-79" value="" style="group" vertex="1" connectable="0" parent="1">
          <mxGeometry x="364" y="490" width="90" height="35" as="geometry" />
        </mxCell>
        <mxCell id="cOqHcEuYxocCmDUIh9o3-80" value="" style="endArrow=none;html=1;rounded=0;" edge="1" parent="cOqHcEuYxocCmDUIh9o3-79">
          <mxGeometry width="50" height="50" relative="1" as="geometry">
            <mxPoint as="sourcePoint" />
            <mxPoint x="90" as="targetPoint" />
          </mxGeometry>
        </mxCell>
        <mxCell id="cOqHcEuYxocCmDUIh9o3-81" value="" style="endArrow=none;html=1;rounded=0;" edge="1" parent="cOqHcEuYxocCmDUIh9o3-79">
          <mxGeometry width="50" height="50" relative="1" as="geometry">
            <mxPoint y="20" as="sourcePoint" />
            <mxPoint x="90" y="20" as="targetPoint" />
          </mxGeometry>
        </mxCell>
        <mxCell id="cOqHcEuYxocCmDUIh9o3-82" value="machinery" style="text;html=1;align=center;verticalAlign=middle;resizable=0;points=[];autosize=1;strokeColor=none;fillColor=none;" vertex="1" parent="cOqHcEuYxocCmDUIh9o3-79">
          <mxGeometry x="5" width="80" height="30" as="geometry" />
        </mxCell>
        <mxCell id="cOqHcEuYxocCmDUIh9o3-83" value="" style="endArrow=classic;html=1;rounded=0;fontSize=19;" edge="1" parent="1" target="cOqHcEuYxocCmDUIh9o3-82">
          <mxGeometry width="50" height="50" relative="1" as="geometry">
            <mxPoint x="324" y="620" as="sourcePoint" />
            <mxPoint x="374" y="570" as="targetPoint" />
          </mxGeometry>
        </mxCell>
      </root>
    </mxGraphModel>
  </diagram>
</mxfile>
